<svg width="22" height="22" viewBox="0 0 22 22" fill="none" xmlns="http://www.w3.org/2000/svg">
<path fill-rule="evenodd" clip-rule="evenodd" d="M11 20C15.9706 20 20 15.9706 20 11C20 6.02944 15.9706 2 11 2C6.02944 2 2 6.02944 2 11C2 15.9706 6.02944 20 11 20ZM22 11C22 17.0751 17.0751 22 11 22C4.92487 22 0 17.0751 0 11C0 4.92487 4.92487 0 11 0C17.0751 0 22 4.92487 22 11Z" fill="black"/>
<path fill-rule="evenodd" clip-rule="evenodd" d="M8.29289 17.7071C7.90237 17.3166 7.90237 16.6834 8.29289 16.2929L13.5858 11L8.29289 5.70711C7.90237 5.31658 7.90237 4.68342 8.29289 4.29289C8.68342 3.90237 9.31658 3.90237 9.70711 4.29289L15.7071 10.2929C16.0976 10.6834 16.0976 11.3166 15.7071 11.7071L9.70711 17.7071C9.31658 18.0976 8.68342 18.0976 8.29289 17.7071Z" fill="black"/>
</svg>
