<svg width="22" height="22" viewBox="0 0 22 22" fill="none" xmlns="http://www.w3.org/2000/svg">
<path fill-rule="evenodd" clip-rule="evenodd" d="M11 20C6.02944 20 2 15.9706 2 11C2 6.02944 6.02944 2 11 2C15.9706 2 20 6.02944 20 11C20 15.9706 15.9706 20 11 20ZM0 11C0 17.0751 4.92487 22 11 22C17.0751 22 22 17.0751 22 11C22 4.92487 17.0751 0 11 0C4.92487 0 0 4.92487 0 11Z" fill="black"/>
<path fill-rule="evenodd" clip-rule="evenodd" d="M13.7071 17.7071C14.0976 17.3166 14.0976 16.6834 13.7071 16.2929L8.41421 11L13.7071 5.70711C14.0976 5.31658 14.0976 4.68342 13.7071 4.29289C13.3166 3.90237 12.6834 3.90237 12.2929 4.29289L6.29289 10.2929C5.90237 10.6834 5.90237 11.3166 6.29289 11.7071L12.2929 17.7071C12.6834 18.0976 13.3166 18.0976 13.7071 17.7071Z" fill="black"/>
</svg>
